<?xml version="1.0" standalone="no"?>
<!DOCTYPE svg PUBLIC "-//W3C//DTD SVG 20010904//EN"
 "http://www.w3.org/TR/2001/REC-SVG-20010904/DTD/svg10.dtd">
<svg version="1.0" xmlns="http://www.w3.org/2000/svg"
 width="277.000000pt" height="366.000000pt" viewBox="0 0 277.000000 366.000000"
 preserveAspectRatio="xMidYMid meet">

<g transform="translate(0.000000,366.000000) scale(0.100000,-0.100000)"
fill="#de0306" stroke="none">
<path d="M670 3030 l0 -210 250 0 250 0 0 -485 0 -485 204 0 204 0 -6 485 -5
485 236 0 237 0 0 204 c0 177 -2 205 -16 210 -9 3 -317 6 -685 6 l-669 0 0
-210z"/>
<path d="M670 2298 c0 -491 3 -520 71 -658 76 -152 231 -277 387 -309 29 -6
137 -11 240 -11 282 0 360 25 493 159 53 52 87 98 112 147 66 131 67 141 67
648 l0 456 -200 0 -200 0 0 -490 0 -489 -270 -3 -270 -3 0 493 0 492 -215 0
-215 0 0 -432z"/>
<path d="M702 1168 c-30 -30 11 -85 44 -57 25 21 11 69 -21 69 -6 0 -16 -5
-23 -12z"/>
<path d="M1642 1168 c-30 -30 0 -78 37 -58 32 17 21 70 -14 70 -6 0 -16 -5
-23 -12z"/>
<path d="M1910 1114 c0 -55 0 -55 -22 -40 -43 31 -111 11 -138 -39 -18 -34
-19 -95 -1 -127 27 -51 96 -72 139 -42 12 8 22 10 22 5 0 -6 14 -11 30 -11
l30 0 0 155 0 155 -30 0 c-30 0 -30 0 -30 -56z m-22 -90 c19 -13 22 -24 20
-57 -2 -33 -9 -44 -30 -56 -23 -13 -30 -13 -52 -1 -46 24 -47 102 -3 120 32
13 40 12 65 -6z"/>
<path d="M2470 1119 c0 -45 -2 -50 -17 -44 -10 5 -33 10 -50 13 -27 3 -39 -2
-68 -31 -31 -31 -35 -41 -35 -87 0 -46 4 -56 35 -87 31 -31 39 -34 73 -29 20
4 56 6 80 6 l42 -1 0 156 0 155 -30 0 c-29 0 -30 -1 -30 -51z m-14 -105 c20
-19 24 -31 20 -52 -7 -30 -40 -62 -63 -62 -21 0 -63 46 -63 70 0 25 42 70 65
70 9 0 27 -11 41 -26z"/>
<path d="M182 1029 c3 -129 3 -131 31 -155 33 -28 95 -32 132 -8 35 23 45 64
45 185 l0 109 -30 0 -30 0 0 -114 c0 -106 -2 -116 -21 -130 -22 -15 -48 -11
-61 8 -4 6 -8 62 -8 124 l0 112 -31 0 -31 0 4 -131z"/>
<path d="M541 1081 c-7 -5 -31 -6 -52 -4 l-39 6 0 -112 0 -111 30 0 30 0 0 73
c0 62 3 77 21 93 15 14 24 16 37 8 13 -9 18 -29 20 -93 l3 -81 29 0 30 0 0 90
c0 83 -2 93 -25 115 -25 25 -59 32 -84 16z"/>
<path d="M1110 1083 c-28 -10 -59 -46 -70 -79 -14 -43 0 -91 36 -125 36 -34
123 -34 156 -1 20 19 21 24 8 32 -8 6 -24 8 -35 4 -52 -15 -67 -15 -90 0 -43
28 -29 36 65 36 90 0 90 0 90 25 0 78 -85 135 -160 108z m81 -53 c35 -19 20
-30 -43 -30 l-63 1 24 19 c26 22 53 25 82 10z"/>
<path d="M1367 1073 c-11 -11 -17 -13 -17 -5 0 7 -11 12 -25 12 l-25 0 0 -110
0 -110 30 0 30 0 0 69 c0 83 5 100 36 112 29 10 33 49 6 49 -10 0 -25 -8 -35
-17z"/>
<path d="M1465 1065 c-14 -13 -25 -31 -25 -40 0 -17 37 -55 81 -87 19 -13 21
-19 12 -29 -10 -10 -18 -10 -39 0 -23 10 -30 9 -43 -4 -15 -15 -14 -18 8 -36
48 -39 141 -7 141 49 0 27 -34 67 -70 82 -16 7 -30 16 -30 21 0 16 20 20 41 8
17 -9 25 -8 38 6 15 15 14 18 -8 36 -32 26 -77 24 -106 -6z"/>
<path d="M2070 1073 c-31 -21 -38 -30 -49 -70 -13 -46 3 -96 41 -128 26 -22
38 -26 67 -21 20 4 55 6 79 6 l42 -1 0 111 0 110 -30 0 c-16 0 -30 -5 -30 -11
0 -5 -10 -3 -22 5 -29 21 -67 20 -98 -1z m98 -49 c19 -13 22 -24 20 -57 -2
-33 -9 -44 -30 -56 -25 -14 -29 -14 -55 5 -40 30 -43 75 -7 103 32 25 42 26
72 5z"/>
<path d="M700 970 l0 -110 28 0 27 0 0 110 0 110 -27 0 -28 0 0 -110z"/>
<path d="M829 970 c38 -90 50 -109 67 -110 17 0 28 15 54 78 18 42 39 92 46
110 14 32 14 32 -14 32 -26 0 -32 -7 -56 -62 l-28 -63 -29 63 c-25 55 -31 62
-57 62 l-29 0 46 -110z"/>
<path d="M1635 970 l0 -110 28 0 27 0 0 110 0 110 -27 0 -28 0 0 -110z"/>
<path d="M1655 646 c-20 -15 -17 -44 7 -59 12 -8 21 -7 32 2 36 30 -1 85 -39
57z"/>
<path d="M490 596 l0 -54 -30 15 c-73 36 -149 -29 -141 -122 6 -80 86 -130
151 -95 13 7 21 7 25 0 3 -5 17 -10 31 -10 l24 0 0 160 0 160 -30 0 c-30 0
-30 -1 -30 -54z m-2 -119 c23 -48 -20 -106 -70 -94 -55 14 -61 97 -9 123 31
16 63 4 79 -29z"/>
<path d="M872 493 l3 -158 28 -3 27 -3 0 160 0 161 -30 0 -31 0 3 -157z"/>
<path d="M1550 500 c0 -82 -1 -153 -2 -157 -2 -5 9 -9 25 -11 l27 -3 0 160 0
161 -25 0 -25 0 0 -150z"/>
<path d="M1080 610 c0 -25 4 -30 25 -30 l25 0 0 -125 0 -125 30 0 30 0 0 124
0 125 28 3 c21 2 28 9 30 31 l3 27 -85 0 -86 0 0 -30z"/>
<path d="M664 556 c-45 -20 -64 -52 -64 -109 0 -42 5 -54 34 -83 28 -28 41
-34 78 -34 26 0 56 8 78 21 l34 21 -28 15 c-21 11 -31 12 -41 3 -22 -18 -76
-8 -93 18 l-14 22 91 0 c91 0 91 0 91 25 0 42 -29 85 -65 101 -42 17 -61 17
-101 0z m87 -46 c34 -19 20 -30 -36 -30 -56 0 -69 11 -37 29 22 13 48 14 73 1z"/>
<path d="M1344 561 c-37 -16 -74 -70 -74 -107 0 -103 113 -162 189 -98 84 70
48 195 -60 209 -19 3 -43 1 -55 -4z m90 -73 c22 -30 20 -60 -4 -86 -25 -27
-50 -28 -81 -4 -25 21 -30 71 -9 96 19 24 76 20 94 -6z"/>
<path d="M1838 555 c-16 -9 -28 -11 -28 -5 0 5 -11 10 -25 10 l-25 0 0 -115 0
-115 25 0 c24 0 25 2 25 65 0 71 13 111 40 118 35 9 45 -10 50 -95 5 -81 6
-83 30 -83 24 0 25 3 30 79 4 67 8 81 27 93 19 13 24 12 42 -6 18 -18 21 -33
21 -96 0 -73 1 -75 25 -75 25 0 25 0 25 99 0 97 -1 100 -27 121 -31 24 -74 21
-105 -7 -17 -15 -19 -15 -31 0 -17 24 -67 30 -99 12z"/>
<path d="M2214 560 c-40 -16 -64 -59 -64 -112 0 -43 4 -54 34 -84 36 -36 78
-44 116 -24 13 7 21 7 25 0 3 -5 17 -10 31 -10 l24 0 0 115 0 115 -30 0 c-16
0 -30 -4 -30 -9 0 -6 -12 -3 -27 5 -31 16 -48 17 -79 4z m101 -73 c20 -29 19
-50 -6 -81 -27 -34 -64 -32 -92 6 -17 22 -19 33 -11 55 18 52 79 62 109 20z"/>
<path d="M1650 444 l0 -115 26 3 25 3 2 113 2 112 -27 0 -28 0 0 -116z"/>
</g>
</svg>
